<?xml version="1.0" encoding="UTF-8" standalone="no"?>
<!-- Created with Inkscape (http://www.inkscape.org/) -->

<svg
   xmlns:dc="http://purl.org/dc/elements/1.1/"
   xmlns:cc="http://creativecommons.org/ns#"
   xmlns:rdf="http://www.w3.org/1999/02/22-rdf-syntax-ns#"
   xmlns:svg="http://www.w3.org/2000/svg"
   xmlns="http://www.w3.org/2000/svg"
   xmlns:sodipodi="http://sodipodi.sourceforge.net/DTD/sodipodi-0.dtd"
   xmlns:inkscape="http://www.inkscape.org/namespaces/inkscape"
   width="210mm"
   height="297mm"
   viewBox="0 0 210 297"
   version="1.1"
   id="svg6532"
   sodipodi:docname="dolna_S2.svg"
   inkscape:version="0.92.4 (5da689c313, 2019-01-14)">
  <defs
     id="defs6526">
    <inkscape:path-effect
       effect="spiro"
       id="path-effect11368"
       is_visible="true" />
    <inkscape:path-effect
       effect="spiro"
       id="path-effect11252"
       is_visible="true" />
    <inkscape:path-effect
       effect="spiro"
       id="path-effect11248"
       is_visible="true" />
    <inkscape:path-effect
       effect="spiro"
       id="path-effect11176"
       is_visible="true" />
    <inkscape:path-effect
       effect="spiro"
       id="path-effect11099"
       is_visible="true" />
    <inkscape:path-effect
       effect="spiro"
       id="path-effect11071"
       is_visible="true" />
    <inkscape:path-effect
       effect="spiro"
       id="path-effect11067"
       is_visible="true" />
    <inkscape:path-effect
       effect="spiro"
       id="path-effect11059"
       is_visible="true" />
    <inkscape:path-effect
       effect="spiro"
       id="path-effect11035"
       is_visible="true" />
    <inkscape:path-effect
       effect="spiro"
       id="path-effect11099-7"
       is_visible="true" />
    <inkscape:path-effect
       effect="spiro"
       id="path-effect11099-70"
       is_visible="true" />
    <inkscape:path-effect
       effect="spiro"
       id="path-effect11099-7-5"
       is_visible="true" />
    <inkscape:path-effect
       effect="spiro"
       id="path-effect11176-6"
       is_visible="true" />
  </defs>
  <sodipodi:namedview
     id="base"
     pagecolor="#ffffff"
     bordercolor="#666666"
     borderopacity="1.0"
     inkscape:pageopacity="0.0"
     inkscape:pageshadow="2"
     inkscape:zoom="0.82497194"
     inkscape:cx="371.77339"
     inkscape:cy="1034.3978"
     inkscape:document-units="mm"
     inkscape:current-layer="layer1"
     showgrid="true"
     showguides="false"
     inkscape:window-width="1440"
     inkscape:window-height="837"
     inkscape:window-x="-8"
     inkscape:window-y="-8"
     inkscape:window-maximized="1">
    <inkscape:grid
       type="xygrid"
       id="grid11027" />
  </sodipodi:namedview>
  <metadata
     id="metadata6529">
    <rdf:RDF>
      <cc:Work
         rdf:about="">
        <dc:format>image/svg+xml</dc:format>
        <dc:type
           rdf:resource="http://purl.org/dc/dcmitype/StillImage" />
        <dc:title></dc:title>
      </cc:Work>
    </rdf:RDF>
  </metadata>
  <g
     inkscape:label="Layer 1"
     inkscape:groupmode="layer"
     id="layer1">
    <ellipse
       style="opacity:1;fill:#ffffff;fill-opacity:1;stroke:#000000;stroke-width:0.26499999;stroke-linejoin:round;stroke-miterlimit:4;stroke-dasharray:none;stroke-dashoffset:0;stroke-opacity:1;paint-order:markers fill stroke"
       id="path11015"
       cx="68.783615"
       cy="56.989948"
       rx="37.150467"
       ry="32.339611"
       inkscape:export-xdpi="150"
       inkscape:export-ydpi="150" />
    <path
       style="fill:none;stroke:#4d4d4d;stroke-width:0.26458332px;stroke-linecap:butt;stroke-linejoin:miter;stroke-opacity:1"
       d="M 70.114582,21.833333 V 101.20833"
       id="path11033"
       inkscape:connector-curvature="0"
       inkscape:path-effect="#path-effect11035"
       inkscape:original-d="m 70.114582,21.833333 c -0.516096,26.45136 0.738021,58.341443 0,79.374997"
       transform="translate(-1.3229153,-3.9687497)" />
    <path
       style="fill:none;stroke:#666666;stroke-width:0.26458332px;stroke-linecap:butt;stroke-linejoin:miter;stroke-opacity:1"
       d="M 14.552083,56.229167 H 111.125"
       id="path11069"
       inkscape:connector-curvature="0"
       inkscape:path-effect="#path-effect11071"
       inkscape:original-d="m 14.552083,56.229167 c 31.221876,0.313251 64.838511,0.273571 96.572917,0"
       transform="translate(2.6458337,1.3229163)"
       inkscape:export-xdpi="150"
       inkscape:export-ydpi="150" />
    <text
       xml:space="preserve"
       style="font-style:normal;font-weight:normal;font-size:10.58333302px;line-height:1.25;font-family:sans-serif;letter-spacing:0px;word-spacing:0px;fill:#000000;fill-opacity:1;stroke:none;stroke-width:0.26458332"
       x="107.82435"
       y="61.694622"
       id="text11228"
       inkscape:export-xdpi="150"
       inkscape:export-ydpi="150"><tspan
         sodipodi:role="line"
         id="tspan11226"
         x="107.82435"
         y="61.694622"
         style="font-size:3.17499995px;stroke-width:0.26458332">$x_1$</tspan></text>
    <text
       xml:space="preserve"
       style="font-style:normal;font-weight:normal;font-size:10.58333302px;line-height:1.25;font-family:sans-serif;letter-spacing:0px;word-spacing:0px;fill:#000000;fill-opacity:1;stroke:none;stroke-width:0.26458332"
       x="70.021042"
       y="21.6999"
       id="text11232"
       inkscape:export-xdpi="150"
       inkscape:export-ydpi="150"><tspan
         sodipodi:role="line"
         id="tspan11230"
         x="70.021042"
         y="21.6999"
         style="font-size:3.17499995px;stroke-width:0.26458332">$x_2$</tspan></text>
    <path
       style="fill:none;stroke:#666666;stroke-width:0.26458332px;stroke-linecap:butt;stroke-linejoin:miter;stroke-opacity:1"
       d="m 112.46445,58.874998 1.32292,-1.256771 -1.33945,-1.38906"
       id="path11246"
       inkscape:connector-curvature="0"
       inkscape:path-effect="#path-effect11248"
       inkscape:original-d="m 112.46445,58.874998 c 0.62247,-0.06884 1.15901,-0.724059 1.32292,-1.256771 -0.80848,-0.07548 -0.94602,-1.245994 -1.33945,-1.38906"
       inkscape:export-xdpi="150"
       inkscape:export-ydpi="150" />
    <path
       style="fill:none;stroke:#4d4d4d;stroke-width:0.26458332px;stroke-linecap:butt;stroke-linejoin:miter;stroke-opacity:1"
       d="m 67.468749,19.1875 1.322917,-1.322917 1.322917,1.322917"
       id="path11250"
       inkscape:connector-curvature="0"
       inkscape:path-effect="#path-effect11252"
       inkscape:original-d="m 67.468749,19.1875 c 0.52669,-0.14821 1.075063,-1.121419 1.322917,-1.322917 0.910237,0.117243 0.994861,0.975767 1.322917,1.322917"
       inkscape:export-xdpi="150"
       inkscape:export-ydpi="150" />
    <path
       style="fill:#666666;stroke:#000000;stroke-width:0.2;stroke-linecap:butt;stroke-linejoin:miter;stroke-opacity:1;stroke-miterlimit:4;stroke-dasharray:0.2, 0.40000000000000002;stroke-dashoffset:0;opacity:0.189"
       d="m 31.75,57.552084 c 37.041666,31.75 74.08333,0 74.08333,0"
       id="path11292"
       inkscape:connector-curvature="0"
       inkscape:export-xdpi="150"
       inkscape:export-ydpi="150" />
    <path
       style="fill:#666666;stroke:#000000;stroke-width:0.2;stroke-linecap:butt;stroke-linejoin:miter;stroke-opacity:1;stroke-miterlimit:4;stroke-dasharray:0.2, 0.40000000000000002;stroke-dashoffset:0;opacity:0.214"
       d="m 105.83333,57.552084 c -37.041664,-33.072918 -74.08333,0 -74.08333,0"
       id="path11294"
       inkscape:connector-curvature="0"
       inkscape:export-xdpi="150"
       inkscape:export-ydpi="150" />
    <path
       style="opacity:0.783;fill:none;fill-opacity:1;stroke:#4d4d4d;stroke-width:0.37795275;stroke-linejoin:round;stroke-miterlimit:4;stroke-dasharray:0.37795276, 0.75590550999999984;stroke-dashoffset:0;stroke-opacity:1;paint-order:markers fill stroke"
       d="m 397.69248,214.96404 c -0.66435,-0.80141 -1.35273,-1.36759 -1.52975,-1.25819 -0.17701,0.1094 -0.86849,-0.46288 -1.53661,-1.27173 -0.66812,-0.80885 -1.4062,-1.47063 -1.64016,-1.47063 -0.3772,0 -1.48355,-0.9074 -4.31398,-3.5382 -0.4664,-0.43351 -1.22456,-0.93269 -1.6848,-1.10931 -0.46025,-0.17661 -0.83681,-0.55317 -0.83681,-0.8368 0,-0.28363 -0.31343,-0.51569 -0.6965,-0.51569 -0.38308,0 -0.82602,-0.3375 -0.98431,-0.75 -0.15829,-0.4125 -0.61361,-0.75 -1.01183,-0.75 -0.39821,0 -0.79902,-0.17043 -0.89069,-0.37872 -0.21937,-0.49848 -4.21673,-3.62128 -4.63544,-3.62128 -0.17868,0 -0.9315,-0.5625 -1.67294,-1.25 -0.74144,-0.6875 -1.63162,-1.25 -1.97818,-1.25 -0.34656,0 -0.63011,-0.225 -0.63011,-0.5 0,-0.275 -0.32632,-0.5 -0.72515,-0.5 -0.39884,0 -0.90509,-0.28348 -1.125,-0.62996 -0.21992,-0.34647 -1.2436,-1.07264 -2.27485,-1.6137 -1.03125,-0.54106 -1.875,-1.15758 -1.875,-1.37004 0,-0.21247 -0.3375,-0.3863 -0.75,-0.3863 -0.4125,0 -0.75,-0.225 -0.75,-0.5 0,-0.275 -0.30995,-0.5 -0.68878,-0.5 -0.37882,0 -0.96682,-0.33503 -1.30665,-0.7445 -0.33983,-0.40947 -0.81897,-0.62021 -1.06475,-0.46831 -0.24579,0.15191 -0.58186,-0.0756 -0.74684,-0.5055 -0.16498,-0.42993 -0.72589,-0.78169 -1.24647,-0.78169 -0.52058,0 -0.94651,-0.225 -0.94651,-0.5 0,-0.275 -0.30995,-0.5 -0.68878,-0.5 -0.37882,0 -0.96682,-0.33503 -1.30665,-0.7445 -0.33983,-0.40947 -0.79189,-0.63695 -1.00457,-0.5055 -0.21268,0.13144 -0.66473,-0.096 -1.00457,-0.50551 -0.33983,-0.40947 -0.92782,-0.74449 -1.30665,-0.74449 -0.37883,0 -0.68878,-0.225 -0.68878,-0.5 0,-0.275 -0.45,-0.5 -1,-0.5 -0.55,0 -1,-0.225 -1,-0.5 0,-0.275 -0.45,-0.5 -1,-0.5 -0.55,0 -1,-0.225 -1,-0.5 0,-0.275 -0.45,-0.5 -1,-0.5 -0.55,0 -1,-0.225 -1,-0.5 0,-0.275 -0.45,-0.5 -1,-0.5 -0.55,0 -1,-0.225 -1,-0.5 0,-0.275 -0.45,-0.5 -1,-0.5 -0.55,0 -1,-0.225 -1,-0.5 0,-0.275 -0.31623,-0.5 -0.70275,-0.5 -0.38651,0 -1.56776,-0.43141 -2.625,-0.95868 -1.94609,-0.97058 -3.64704,-1.6693 -4.25558,-1.74814 -0.18333,-0.0238 -0.50208,-0.21193 -0.70833,-0.41818 -0.20625,-0.20625 -0.7875,-0.375 -1.29167,-0.375 -0.50417,0 -0.91667,-0.225 -0.91667,-0.5 0,-0.275 -0.4125,-0.5 -0.91666,-0.5 -0.50417,0 -1.08542,-0.16875 -1.29167,-0.375 -0.20625,-0.20625 -0.525,-0.39982 -0.70833,-0.43015 -1.94384,-0.32159 -3.58334,-0.9069 -3.58334,-1.27927 0,-0.25268 -0.28125,-0.41407 -0.625,-0.35864 -0.65143,0.10504 -2.04688,-0.32484 -3.43844,-1.05924 -0.4474,-0.23611 -1.63113,-0.58269 -2.63053,-0.77018 -0.99939,-0.18749 -1.94263,-0.54405 -2.0961,-0.79236 -0.15346,-0.24831 -0.49833,-0.31593 -0.76638,-0.15027 -0.26804,0.16566 -0.75875,0.0827 -1.09045,-0.18437 -0.63437,-0.51075 -18.02411,-4.60277 -20.6031,-4.84817 -0.825,-0.0785 -1.5,-0.19022 -1.5,-0.24827 0,-0.058 -0.9,-0.20521 -2,-0.32704 -4.22879,-0.46836 -5,-0.57041 -5,-0.66161 0,-0.0518 -0.9,-0.16619 -2,-0.25417 -1.1,-0.088 -4.025,-0.33584 -6.5,-0.55079 -2.475,-0.21494 -7.59375,-0.40508 -11.375,-0.42253 l -6.875,-0.0317 V 127.76382 93.807935 l 6.875,0.313737 c 31.14663,1.42136 60.92318,12.029328 84.75561,30.194378 6.58272,5.01734 16.88118,15.02303 22.02353,21.39744 12.80525,15.87326 21.24914,34.6662 24.1096,53.65893 0.93526,6.20987 1.53322,17.09785 0.93746,17.06989 -0.24816,-0.0117 -0.99475,-0.67687 -1.65909,-1.47827 z"
       id="path11296"
       inkscape:connector-curvature="0"
       transform="scale(0.26458333)"
       inkscape:export-xdpi="150"
       inkscape:export-ydpi="150" />
    <path
       style="opacity:0.716;fill:none;fill-opacity:1;stroke:#4d4d4d;stroke-width:0.37795275;stroke-linejoin:round;stroke-miterlimit:4;stroke-dasharray:0.37795276, 0.75590550999999984;stroke-dashoffset:0;stroke-opacity:1;paint-order:markers fill stroke"
       d="m 120.15553,214.61676 c 0.003,-1.0468 0.23784,-4.60327 0.52223,-7.90327 3.51324,-40.76652 29.82097,-76.85151 70.72261,-97.00664 9.93995,-4.89812 18.56934,-8.09719 29,-10.750821 11.8556,-3.016144 25.72208,-4.986401 35.125,-4.990833 l 3.625,-0.0017 v 33.920734 33.92074 l -2.375,0.0476 c -5.47401,0.10957 -14.64443,0.9794 -19.625,1.86146 -0.9625,0.17046 -2.425,0.39448 -3.25,0.49781 -0.825,0.10333 -1.5,0.23126 -1.5,0.28427 0,0.053 -0.5625,0.16137 -1.25,0.24079 -2.62534,0.30326 -4.95082,0.7778 -11,2.24465 -3.4375,0.83356 -6.5875,1.53868 -7,1.56694 -0.4125,0.0283 -1.03125,0.27326 -1.375,0.54444 -0.34375,0.27119 -0.625,0.32547 -0.625,0.12063 0,-0.20485 -0.28125,-0.14534 -0.625,0.13224 -0.34375,0.27758 -1.58007,0.66221 -2.74738,0.85473 -1.16731,0.19252 -2.24326,0.54564 -2.39101,0.7847 -0.14775,0.23906 -0.59893,0.30791 -1.00262,0.153 -0.40369,-0.15493 -0.73399,-0.0326 -0.73399,0.27182 0,0.30443 -0.54922,0.5535 -1.22049,0.5535 -0.67127,0 -1.35347,0.21517 -1.51601,0.47816 -0.16254,0.26299 -0.62582,0.35142 -1.02951,0.19651 -0.40369,-0.15492 -0.73399,-0.0228 -0.73399,0.29375 0,0.31648 -0.28125,0.53006 -0.625,0.47464 -0.59324,-0.0957 -1.34371,0.12316 -3.625,1.05694 -2.28128,0.93378 -3.03176,1.1526 -3.625,1.05694 -0.34375,-0.0554 -0.625,0.13408 -0.625,0.42114 0,0.28705 -0.31178,0.52192 -0.69284,0.52192 -0.38107,0 -1.33732,0.33611 -2.125,0.74692 -0.78769,0.4108 -1.81263,0.7483 -2.27765,0.75 -0.46502,0.001 -0.98455,0.22808 -1.15451,0.50308 -0.16996,0.275 -0.74574,0.5 -1.27951,0.5 -0.53377,0 -0.97049,0.225 -0.97049,0.5 0,0.275 -0.43672,0.5 -0.97049,0.5 -0.53377,0 -1.11182,0.22867 -1.28455,0.50815 -0.17273,0.27949 -0.49801,0.39447 -0.72285,0.25551 -0.22484,-0.13896 -0.68479,0.0799 -1.02211,0.48634 -0.33732,0.40644 -0.79726,0.62529 -1.0221,0.48634 -0.22484,-0.13896 -0.55013,-0.024 -0.72286,0.2555 -0.17273,0.27949 -0.75078,0.50816 -1.28455,0.50816 -0.53377,0 -0.97049,0.225 -0.97049,0.5 0,0.275 -0.29936,0.5 -0.66526,0.5 -0.77444,0 -4.93696,2.04743 -6.06378,2.98261 -0.42403,0.35191 -0.77096,0.46491 -0.77096,0.25112 0,-0.2138 -0.45,0.0186 -1,0.51627 -0.55,0.49774 -1,0.72274 -1,0.5 0,-0.22275 -0.41201,-0.0321 -0.91558,0.42359 -0.50356,0.45573 -1.034,0.71016 -1.17875,0.56542 -0.14474,-0.14475 -0.54778,0.0798 -0.89564,0.4989 -0.34786,0.41915 -0.94242,0.76209 -1.32125,0.76209 -0.37883,0 -0.68878,0.225 -0.68878,0.5 0,0.275 -0.45,0.5 -1,0.5 -0.55,0 -1,0.225 -1,0.5 0,0.275 -0.45,0.5 -1,0.5 -0.55,0 -1,0.225 -1,0.5 0,0.275 -0.30995,0.5 -0.68878,0.5 -0.37883,0 -0.96682,0.33502 -1.30665,0.74449 -0.33983,0.40947 -0.81897,0.62021 -1.06475,0.46831 -0.24579,-0.1519 -0.56716,0.0373 -0.71417,0.42035 -0.14701,0.3831 -1.04542,1.00185 -1.99647,1.37502 -0.95105,0.37316 -1.72918,0.83524 -1.72918,1.02683 0,0.1916 -0.39375,0.48058 -0.875,0.64217 -0.85041,0.28554 -2.61982,1.31764 -3.125,1.82283 -0.50518,0.50518 -2.27459,1.53729 -3.125,1.82283 -0.48125,0.16159 -0.875,0.49256 -0.875,0.73548 0,0.24293 -0.31343,0.44169 -0.69651,0.44169 -0.38307,0 -0.82601,0.3375 -0.9843,0.75 -0.15829,0.4125 -0.63237,0.75 -1.0535,0.75 -0.42113,0 -0.76569,0.225 -0.76569,0.5 0,0.275 -0.34456,0.5 -0.76569,0.5 -0.42113,0 -0.89521,0.3375 -1.0535,0.75 -0.15829,0.4125 -0.54728,0.75 -0.86441,0.75 -0.31714,0 -1.18325,0.5625 -1.92469,1.25 -0.74143,0.6875 -1.53274,1.25 -1.75846,1.25 -0.22571,0 -1.14942,0.675 -2.05268,1.5 -0.90326,0.825 -1.82933,1.5 -2.05793,1.5 -0.22861,0 -0.54516,0.3375 -0.70345,0.75 -0.15829,0.4125 -0.60829,0.75 -1,0.75 -0.39171,0 -0.82368,0.28125 -0.95994,0.625 -0.13626,0.34375 -0.94783,1.03147 -1.8035,1.52827 l -1.55575,0.90326 z"
       id="path11298"
       inkscape:connector-curvature="0"
       transform="scale(0.26458333)"
       inkscape:export-xdpi="150"
       inkscape:export-ydpi="150" />
    <path
       style="opacity:0.78299997;fill:none;fill-opacity:1;stroke:#4d4d4d;stroke-width:0.37795275;stroke-linejoin:round;stroke-miterlimit:4;stroke-dasharray:0.37795276, 0.75590551;stroke-dashoffset:0;stroke-opacity:1;paint-order:markers fill stroke"
       d="m 247.72331,336.424 c -43.00008,-3.29867 -82.44467,-24.19008 -105.65773,-55.96051 -9.63652,-13.18898 -16.51237,-28.6164 -19.6323,-44.0492 -1.18705,-5.87178 -2.42904,-17.41255 -1.93174,-17.95002 0.12683,-0.13706 0.55938,0.20044 0.96123,0.75 0.40186,0.54957 0.88971,0.98664 1.08412,0.97127 0.39686,-0.0314 1.02037,0.44111 3.06919,2.32577 0.77598,0.71381 1.77614,1.438 2.22258,1.60931 0.44644,0.17132 0.81171,0.54354 0.81171,0.82718 0,0.28363 0.3375,0.51569 0.75,0.51569 0.4125,0 0.75,0.1976 0.75,0.43911 0,0.24151 1.2375,1.29141 2.75,2.33311 1.5125,1.0417 2.75,2.0816 2.75,2.31089 0,0.22929 0.23461,0.41689 0.52135,0.41689 0.28674,0 1.73964,0.9 3.22865,2 1.48902,1.1 2.94191,2 3.22865,2 0.28674,0 0.52135,0.225 0.52135,0.5 0,0.275 0.34456,0.5 0.76569,0.5 0.42113,0 0.89521,0.3375 1.0535,0.75 0.15829,0.4125 0.52374,0.75 0.81211,0.75 0.28837,0 1.26178,0.5625 2.16314,1.25 0.90136,0.6875 1.87885,1.25 2.1722,1.25 0.29335,0 0.53336,0.225 0.53336,0.5 0,0.275 0.30995,0.5 0.68878,0.5 0.37883,0 0.96682,0.33502 1.30665,0.74449 0.33983,0.40947 0.81897,0.62021 1.06476,0.46831 0.24578,-0.1519 0.58186,0.0756 0.74684,0.50551 0.16498,0.42993 0.72589,0.78169 1.24646,0.78169 0.52058,0 0.94651,0.17192 0.94651,0.38205 0,0.21013 0.93329,0.82888 2.07397,1.375 3.3048,1.58223 3.92603,1.9559 3.92603,2.36151 0,0.20979 0.45,0.38144 1,0.38144 0.55,0 1,0.225 1,0.5 0,0.275 0.45,0.5 1,0.5 0.55,0 1,0.225 1,0.5 0,0.275 0.45,0.5 1,0.5 0.55,0 1,0.225 1,0.5 0,0.275 0.45,0.5 1,0.5 0.55,0 1,0.225 1,0.5 0,0.275 0.45,0.5 1,0.5 0.55,0 1,0.225 1,0.5 0,0.275 0.45,0.5 1,0.5 0.55,0 1,0.225 1,0.5 0,0.275 0.43672,0.5 0.97049,0.5 0.53377,0 1.11182,0.22867 1.28455,0.50815 0.17273,0.27949 0.49802,0.39447 0.72286,0.25551 0.22484,-0.13896 0.68478,0.0799 1.0221,0.48634 0.33732,0.40644 0.7983,0.62466 1.0244,0.48492 0.2261,-0.13974 1.21995,0.20024 2.20856,0.7555 0.9886,0.55527 2.12812,1.00958 2.53225,1.00958 0.40414,0 0.73479,0.23486 0.73479,0.52192 0,0.28705 0.28125,0.47656 0.625,0.42114 0.65144,-0.10504 2.04688,0.32483 3.43845,1.05923 0.44739,0.23612 1.62864,0.58223 2.625,0.76915 0.99635,0.18692 1.81155,0.56388 1.81155,0.8377 0,0.27381 0.3303,0.3711 0.73399,0.21619 0.40369,-0.15491 0.86697,-0.0665 1.02951,0.1965 0.16254,0.26299 0.84474,0.47817 1.51601,0.47817 0.67127,0 1.22049,0.24907 1.22049,0.55349 0,0.30442 0.3303,0.42675 0.73399,0.27184 0.40369,-0.15491 0.8509,-0.0925 0.99379,0.13872 0.1429,0.23121 1.7279,0.69738 3.52222,1.03595 1.79433,0.33856 3.38767,0.81824 3.54076,1.06594 0.15309,0.2477 0.49765,0.31483 0.76569,0.14917 0.26805,-0.16566 0.80515,-0.0375 1.19355,0.28489 0.38841,0.32235 0.92551,0.45055 1.19355,0.28489 0.26805,-0.16566 0.61983,-0.0868 0.78175,0.17514 0.16192,0.26198 0.68371,0.4829 1.15955,0.49093 1.12349,0.019 3.36515,0.38469 3.36515,0.54904 0,0.1961 2.36395,0.53757 3.625,0.52363 0.61875,-0.007 1.125,0.1538 1.125,0.35697 0,0.20317 0.50625,0.39137 1.125,0.41822 1.29001,0.056 5.125,0.58889 5.125,0.71216 0,0.0453 1.0125,0.18789 2.25,0.31699 3.5656,0.37199 4.75,0.53495 4.75,0.65356 0,0.0608 1.125,0.1796 2.5,0.26407 1.375,0.0845 4.4125,0.30159 6.75,0.48248 2.3375,0.18089 6.95,0.37232 10.25,0.4254 l 6,0.0965 0.1286,32.875 0.12859,32.875 -3.12859,-0.0712 c -1.72073,-0.0392 -5.45828,-0.24989 -8.30566,-0.46832 z"
       id="path11300"
       inkscape:connector-curvature="0"
       transform="scale(0.26458333)"
       inkscape:export-xdpi="150"
       inkscape:export-ydpi="150" />
    <path
       style="opacity:0.78299997;fill:#4d4d4d;fill-opacity:1;stroke:#4d4d4d;stroke-width:0.37795275;stroke-linejoin:round;stroke-miterlimit:4;stroke-dasharray:0.37795276, 0.75590550999999984;stroke-dashoffset:0;stroke-opacity:1;paint-order:markers fill stroke"
       d="m 253.45771,336.60416 c -0.07,-0.07 -2.13659,-0.23833 -4.59234,-0.37399 -2.45575,-0.13565 -5.7025,-0.38996 -7.215,-0.56514 -1.5125,-0.17517 -3.2,-0.36965 -3.75,-0.43218 -0.55,-0.0625 -1.5625,-0.26941 -2.25,-0.45973 -0.6875,-0.19033 -2.0375,-0.44772 -3,-0.57198 -0.9625,-0.12426 -2.3125,-0.33382 -3,-0.46567 -1.26086,-0.24182 -1.72403,-0.3505 -4,-0.93859 -0.6875,-0.17764 -1.8125,-0.42478 -2.5,-0.54919 -0.6875,-0.12441 -2.01328,-0.45773 -2.94618,-0.74071 -0.93291,-0.28299 -1.88916,-0.39526 -2.125,-0.2495 -0.23585,0.14576 -0.42882,0.0643 -0.42882,-0.18115 0,-0.2454 -0.28125,-0.46561 -0.625,-0.48936 -0.92797,-0.0641 -2.45681,-0.46956 -3.94859,-1.04716 -0.72797,-0.28186 -1.45922,-0.37684 -1.625,-0.21107 -0.16577,0.16578 -0.30141,0.0764 -0.30141,-0.19859 0,-0.275 -0.3375,-0.5375 -0.75,-0.58333 -0.4125,-0.0459 -1.0875,-0.12083 -1.5,-0.16667 -0.4125,-0.0459 -0.75,-0.22171 -0.75,-0.39084 0,-0.34922 -4.55048,-1.80022 -5.125,-1.63419 -0.20625,0.0596 -0.375,-0.12991 -0.375,-0.42114 0,-0.29123 -0.225,-0.39045 -0.5,-0.22049 -0.275,0.16996 -0.5,0.10824 -0.5,-0.13716 0,-0.2454 -0.28125,-0.45628 -0.625,-0.46864 -1.67046,-0.06 -21.72467,-10.50217 -24.19672,-12.59912 -0.31445,-0.26673 -0.7082,-0.3485 -0.875,-0.18169 -0.1668,0.1668 -0.30328,0.0559 -0.30328,-0.24637 0,-0.3023 -0.42491,-0.6845 -0.94425,-0.84933 -0.51934,-0.16483 -1.58809,-0.86139 -2.375,-1.5479 -2.25038,-1.96328 -2.68075,-2.27951 -2.68075,-1.96979 0,0.32793 -0.8611,-0.36115 -3.01593,-2.41346 -0.81624,-0.77741 -1.48407,-1.2759 -1.48407,-1.10776 0,0.16813 -0.65095,-0.32081 -1.44656,-1.08654 -2.84378,-2.737 -5.15418,-4.64224 -5.62941,-4.64224 -0.26567,0 -0.34399,-0.225 -0.17403,-0.5 0.16996,-0.275 0.0984,-0.5 -0.15907,-0.5 -0.67365,0 -8.03637,-7.64906 -10.74862,-11.16664 -0.60077,-0.77915 -1.72837,-2.0729 -2.50577,-2.875 -0.77741,-0.8021 -1.27478,-1.45836 -1.10529,-1.45836 0.32825,0 0.0291,-0.41101 -1.95104,-2.68075 -0.68651,-0.78691 -1.38307,-1.85566 -1.5479,-2.375 -0.16483,-0.51934 -0.54704,-0.94425 -0.84934,-0.94425 -0.3023,0 -0.41316,-0.13648 -0.24636,-0.30328 0.1668,-0.1668 0.0843,-0.56055 -0.18342,-0.875 -1.93522,-2.27329 -10.09327,-18.01498 -9.5946,-18.51365 0.16944,-0.16944 0.0323,-0.30807 -0.30476,-0.30807 -0.33707,0 -0.47379,-0.225 -0.30383,-0.5 0.16996,-0.275 0.10824,-0.5 -0.13716,-0.5 -0.24539,0 -0.46289,-0.28125 -0.48332,-0.625 -0.0343,-0.57737 -0.38122,-1.64755 -1.82341,-5.625 -0.29913,-0.825 -0.49038,-1.66875 -0.42499,-1.875 0.0654,-0.20625 -0.0583,-0.375 -0.27477,-0.375 -0.2165,0 -0.44698,-0.70004 -0.51218,-1.55563 -0.0652,-0.8556 -0.33013,-1.95102 -0.58876,-2.43426 -0.25862,-0.48325 -0.32814,-1.02071 -0.15448,-1.19437 0.17365,-0.17366 0.1011,-0.31574 -0.16124,-0.31574 -0.40784,0 -0.68958,-1.32572 -0.82352,-3.875 -0.0181,-0.34375 -0.17534,-0.625 -0.3495,-0.625 -0.17417,0 -0.33519,-0.50625 -0.35782,-1.125 -0.0871,-2.3817 -0.38318,-4.375 -0.64983,-4.375 -0.15305,0 -0.30576,-0.84375 -0.33935,-1.875 -0.0336,-1.03125 -0.19273,-3.73125 -0.35364,-6 -0.1609,-2.26875 -0.18534,-4.125 -0.0543,-4.125 0.13104,0 0.64969,0.39375 1.15256,0.875 1.66494,1.59338 3.5857,3.12243 3.5857,2.85445 0,-0.14516 0.66742,0.41883 1.48315,1.25331 0.81573,0.83448 1.66573,1.51724 1.88888,1.51724 0.22315,0 0.76763,0.39375 1.20995,0.875 0.44232,0.48125 1.39796,1.325 2.12364,1.875 0.72568,0.55 1.6909,1.3375 2.14493,1.75 0.45403,0.4125 1.96714,1.47161 3.36248,2.35359 1.39533,0.88197 2.77961,1.81102 3.07617,2.06456 0.80779,0.6906 4.94197,3.26504 5.0858,3.16703 0.0687,-0.0468 0.53976,0.30857 1.04669,0.78982 1.1286,1.07141 4.18982,2.83862 4.70331,2.71516 0.20625,-0.0496 0.375,0.11784 0.375,0.37207 0,0.25423 1.4625,1.20515 3.25,2.11317 1.7875,0.90801 3.25,1.83829 3.25,2.06727 0,0.22899 0.225,0.27729 0.5,0.10733 0.275,-0.16996 0.5,-0.0575 0.5,0.25 0,0.30746 0.225,0.41996 0.5,0.25 0.275,-0.16996 0.5,-0.0986 0.5,0.15856 0,0.25716 1.575,1.29521 3.5,2.30677 1.925,1.01156 3.5,1.67955 3.5,1.48444 0,-0.19512 0.45,0.0525 1,0.55023 0.55,0.49774 1,0.72274 1,0.5 0,-0.22275 0.45,0.002 1,0.5 0.55,0.49774 1.00716,0.70136 1.0159,0.45249 0.009,-0.24887 0.34625,-0.0157 0.75,0.51807 0.40376,0.53381 0.7341,0.81049 0.7341,0.61484 0,-0.19565 0.89104,0.0988 1.98008,0.65444 1.08905,0.55558 2.32655,1.01016 2.75,1.01016 0.42346,0 0.76992,0.225 0.76992,0.5 0,0.275 0.34392,0.5 0.76426,0.5 0.42034,0 2.10784,0.67824 3.75,1.5072 1.64216,0.82895 2.98574,1.26288 2.98574,0.96428 0,-0.2986 0.35324,-0.18968 0.78497,0.24205 0.43173,0.43173 1.38798,0.91872 2.125,1.08219 0.73702,0.16347 1.79003,0.434 2.34003,0.60117 0.55,0.16717 1.1125,0.33386 1.25,0.37043 0.1375,0.0366 0.925,0.35121 1.75,0.69922 0.825,0.34802 1.725,0.68893 2,0.75759 0.275,0.0686 0.8375,0.25252 1.25,0.40859 0.62538,0.2366 1.51069,0.47959 4,1.09784 0.1375,0.0342 1.08935,0.34974 2.11523,0.70131 1.02587,0.35158 2.09462,0.49745 2.375,0.32417 0.28037,-0.17328 0.50977,-0.0505 0.50977,0.27276 0,0.34166 0.41878,0.47832 1,0.32632 0.55,-0.14382 1,-0.11262 1,0.0693 0,0.51439 3.29403,1.42042 4.98252,1.37045 0.83466,-0.0247 1.51754,0.15008 1.51752,0.3884 -2e-5,0.23833 0.44996,0.31564 0.99996,0.17181 0.55,-0.14382 1,-0.0313 1,0.24998 0,0.28131 0.56787,0.40292 1.26194,0.27024 0.69406,-0.13268 1.39182,-0.0311 1.55057,0.2258 0.15875,0.25687 0.60338,0.34625 0.98807,0.19864 0.38468,-0.14762 0.69942,-0.0878 0.69942,0.13296 0,0.22075 1.01254,0.38244 2.25009,0.35931 1.23755,-0.0231 2.25005,0.12418 2.25,0.32735 -5e-5,0.20317 0.50616,0.37299 1.12491,0.37738 0.61875,0.005 2.1375,0.12842 3.375,0.27562 8.57435,1.01987 12.94806,1.30994 21.12494,1.40102 5.72227,0.0637 6.88218,0.20232 6.91816,0.82658 0.1907,3.30945 0.15049,62.58298 -0.0431,63.5287 -0.22307,1.08971 -0.50942,1.22227 -2.65767,1.2303 -1.32421,0.005 -2.46496,-0.0483 -2.535,-0.11833 z"
       id="path11302"
       inkscape:connector-curvature="0"
       transform="scale(0.26458333)"
       inkscape:export-xdpi="150"
       inkscape:export-ydpi="150" />
    <path
       style="opacity:0.78299997;fill:#4d4d4d;fill-opacity:1;stroke:#4d4d4d;stroke-width:0.37795275;stroke-linejoin:round;stroke-miterlimit:4;stroke-dasharray:0.37795276, 0.75590550999999995;stroke-dashoffset:0;stroke-opacity:1;paint-order:markers fill stroke"
       d="m 260.65037,304.04682 c 0,-25.97306 0.13184,-32.92732 0.625,-32.96718 0.34375,-0.0278 2.7625,-0.18529 5.375,-0.35001 5.75426,-0.36282 7.77326,-0.53539 12,-1.02569 1.7875,-0.20735 3.71136,-0.41776 4.27525,-0.46757 0.56389,-0.0498 1.29514,-0.25737 1.625,-0.46123 0.32986,-0.20387 0.77363,-0.2632 0.98616,-0.13185 0.21253,0.13134 1.79786,-0.0873 3.52297,-0.48581 1.72511,-0.39854 3.35123,-0.59194 3.61359,-0.42979 0.26237,0.16215 0.47703,0.0303 0.47703,-0.29301 0,-0.34156 0.41873,-0.47832 0.9995,-0.32645 0.54973,0.14376 1.13499,0.0422 1.30058,-0.22577 0.16559,-0.26793 0.64433,-0.35542 1.06387,-0.19443 0.41954,0.16099 1.01553,0.0945 1.32442,-0.14776 0.3089,-0.24226 0.95538,-0.47114 1.43663,-0.50863 0.48125,-0.0375 1.26875,-0.0988 1.75,-0.13631 0.48125,-0.0375 1.14639,-0.28185 1.4781,-0.54304 0.3317,-0.26119 0.8224,-0.33935 1.09045,-0.17369 0.26804,0.16566 0.63816,0.0572 0.82248,-0.24104 0.18431,-0.29824 0.64266,-0.42423 1.01853,-0.28 0.37588,0.14424 0.80033,0.0731 0.94322,-0.15812 0.1429,-0.23121 1.72789,-0.69739 3.52222,-1.03595 1.79433,-0.33857 3.38767,-0.81824 3.54076,-1.06594 0.15309,-0.24771 0.49765,-0.31483 0.76569,-0.14917 0.26805,0.16566 0.80515,0.0375 1.19355,-0.28489 0.38841,-0.32235 0.92551,-0.45055 1.19355,-0.28489 0.26805,0.16566 0.61658,0.0921 0.77452,-0.16345 0.15795,-0.25556 1.18481,-0.61631 2.28193,-0.80166 1.09712,-0.18536 2.10962,-0.52286 2.25,-0.75 0.14038,-0.22715 1.15406,-0.56484 2.25262,-0.75044 1.09856,-0.18561 1.99738,-0.51764 1.99738,-0.73787 0,-0.22022 0.8152,-0.55333 1.81156,-0.74025 0.99635,-0.18692 2.1776,-0.53303 2.625,-0.76915 0.90756,-0.47896 2.63538,-1.14286 3.14678,-1.20911 0.18333,-0.0238 0.50208,-0.21193 0.70833,-0.41818 0.20625,-0.20625 0.7875,-0.375 1.29167,-0.375 0.50416,0 0.91666,-0.225 0.91666,-0.5 0,-0.275 0.43672,-0.5 0.97049,-0.5 0.53377,0 1.11903,-0.24034 1.30058,-0.53409 0.18155,-0.29375 0.62837,-0.41962 0.99295,-0.27972 0.36458,0.1399 0.92981,-0.0673 1.25608,-0.46041 0.32626,-0.39312 0.77717,-0.60108 1.00201,-0.46212 0.22484,0.13896 0.55012,0.024 0.72285,-0.25551 0.17273,-0.27948 0.75078,-0.50815 1.28455,-0.50815 0.53377,0 0.97049,-0.225 0.97049,-0.5 0,-0.275 0.45,-0.5 1,-0.5 0.55,0 1,-0.225 1,-0.5 0,-0.275 0.28726,-0.5 0.63835,-0.5 0.74877,0 14.98836,-7.06775 16.10249,-7.9924 0.41754,-0.34652 0.75916,-0.45512 0.75916,-0.24133 0,0.21379 0.41201,0.0159 0.91558,-0.43987 0.50356,-0.45572 1.06606,-0.67809 1.25,-0.49416 0.18393,0.18393 0.33442,0.10812 0.33442,-0.16847 0,-0.27659 0.89742,-0.93284 1.99427,-1.45833 1.09684,-0.52549 1.99684,-1.12419 2,-1.33044 0.003,-0.20625 0.45573,-0.375 1.00573,-0.375 0.55,0 1,-0.17384 1,-0.3863 0,-0.21246 0.84375,-0.82906 1.875,-1.37021 1.03125,-0.54116 1.9875,-1.09857 2.125,-1.23871 0.49257,-0.502 2.26609,-1.53922 3.125,-1.82761 0.48125,-0.16159 0.875,-0.49256 0.875,-0.73549 0,-0.24292 0.24001,-0.44168 0.53336,-0.44168 0.29335,0 1.27084,-0.5625 2.1722,-1.25 0.90136,-0.6875 1.87477,-1.25 2.16314,-1.25 0.28837,0 0.65382,-0.3375 0.81212,-0.75 0.15829,-0.4125 0.60829,-0.75 1,-0.75 0.3917,0 0.84718,-0.35176 1.01216,-0.78169 0.16498,-0.42993 0.52814,-0.64067 0.80702,-0.46831 0.27889,0.17236 0.64205,-0.0384 0.80703,-0.46831 0.16498,-0.42993 0.58932,-0.78169 0.94297,-0.78169 0.35366,0 0.77252,-0.3375 0.93082,-0.75 0.15829,-0.4125 0.60829,-0.75 1,-0.75 0.3917,0 0.84718,-0.35176 1.01216,-0.78169 0.16498,-0.42993 0.50297,-0.65623 0.7511,-0.50288 0.24813,0.15336 0.58015,-0.0574 0.73784,-0.4683 0.15768,-0.41092 0.51876,-0.74713 0.80239,-0.74713 0.28363,0 0.98444,-0.46875 1.55736,-1.04167 0.57292,-0.57292 1.16,-0.92333 1.30464,-0.77869 0.47576,0.47576 -0.8568,11.95042 -2.10833,18.15478 -4.46383,22.12915 -16.47901,43.30922 -34.20398,60.29399 -20.38023,19.52914 -47.09737,32.55511 -77.08835,37.58451 -6.72145,1.12717 -18.56306,2.28708 -23.34893,2.28708 h -2.09672 z"
       id="path11304"
       inkscape:connector-curvature="0"
       transform="scale(0.26458333)"
       inkscape:export-xdpi="150"
       inkscape:export-ydpi="150" />
    <path
       style="fill:none;stroke:#000000;stroke-width:0.26458332px;stroke-linecap:butt;stroke-linejoin:miter;stroke-opacity:1"
       d="m 93.927082,76.072917 c -0.06941,0.0275 -0.126265,0.08515 -0.152786,0.154943 -0.02869,0.0755 -0.02141,0.162908 0.01545,0.234775 0.03685,0.07187 0.101891,0.127919 0.176813,0.158082 0.07492,0.03016 0.159062,0.03504 0.238075,0.0183 0.07901,-0.01673 0.152901,-0.05452 0.215835,-0.105141 0.12587,-0.101238 0.205563,-0.249896 0.257056,-0.403 0.05149,-0.153103 0.07787,-0.313328 0.117292,-0.469973 0.207304,-0.823654 0.785157,-1.533133 1.516652,-1.964751 0.731496,-0.431618 1.605213,-0.595258 2.452032,-0.529849 0.151282,0.01168 0.304879,0.03027 0.453562,0 0.17932,-0.03651 0.339673,-0.14341 0.460531,-0.280821 0.120859,-0.137411 0.204587,-0.304105 0.265685,-0.476603 0.122193,-0.344995 0.158143,-0.717102 0.294303,-1.056829 0.1313,-0.327595 0.35049,-0.611873 0.58017,-0.879841 0.22967,-0.267968 0.47369,-0.525834 0.66713,-0.821025 0.23417,-0.357343 0.39113,-0.771944 0.40627,-1.19891 0.0151,-0.426966 -0.11961,-0.865508 -0.40627,-1.182298 -0.31441,-0.34746 -0.79763,-0.526129 -1.26521,-0.495236 -0.467576,0.03089 -0.913274,0.262716 -1.229392,0.608626 -0.426365,0.466548 -0.608681,1.099671 -0.782214,1.707405 -0.173532,0.607734 -0.365898,1.23999 -0.805256,1.694324 -0.168527,0.174272 -0.367612,0.315596 -0.566955,0.453562 -0.778474,0.538784 -1.587017,1.048282 -2.255909,1.718277 -0.668893,0.669995 -1.197246,1.53248 -1.25921,2.477187 -0.04581,0.698387 0.174448,1.410979 0.606348,1.961711"
       id="path11366"
       inkscape:connector-curvature="0"
       inkscape:path-effect="#path-effect11368"
       inkscape:original-d="m 93.927082,76.072917 c -0.05093,0.05165 -0.101137,0.205872 -0.152786,0.154943 -0.08724,-0.08603 0.919398,-0.415272 1.020519,-0.566955 0.687274,-1.030909 3.023264,-1.54918 3.968684,-2.4946 0.106905,-0.106905 0.346657,0.106908 0.453562,0 0.380325,-0.380325 0.64825,-1.441987 1.020519,-1.814253 0.29511,-0.295108 1.06715,-0.980287 1.2473,-1.700866 0.12607,-0.504285 0.15896,-1.904336 0,-2.381208 -0.0224,-0.06731 -1.736457,-0.392038 -2.494602,0.11339 -0.134633,0.08976 -1.422535,2.906922 -1.58747,3.401729 -0.06641,0.199237 -0.447083,0.253776 -0.566955,0.453562 -0.738005,1.230009 -3.194277,2.912092 -3.515119,4.195464 -0.530289,2.121149 2.086575,0.573707 0.606348,1.961711" />
  </g>
</svg>
